<svg 
  width="800" 
  height="250" 
  viewBox="0 0 800 250" 
  fill="none" 
  xmlns="http://www.w3.org/2000/svg"
>
  <!-- Container for full logo -->
  <g id="full-logo">
    <!-- Text part -->
    <text x="200" y="140" 
      font-family="'Poppins', sans-serif" 
      font-size="60" 
      font-weight="700"
      class="logo-text"
    >
      <tspan fill="url(#textGradient)">Moon Digital Studio</tspan>
    </text>
    
    <!-- Icon part -->
    <g transform="translate(50, 25)">
      <svg 
        width="200" 
        height="200" 
        viewBox="0 0 100 100" 
        fill="none" 
        xmlns="http://www.w3.org/2000/svg"
        style="filter: drop-shadow(0 0 4px rgba(155, 232, 241, 0.6))"
      >
        <!-- Moon Digital Studio logo -->
        <defs>
          <linearGradient id="moonGradient" x1="0%" y1="0%" x2="100%" y2="100%">
            <stop offset="0%" stop-color="#9BE8F1" />
            <stop offset="70%" stop-color="#BBA6DD" />
            <stop offset="100%" stop-color="#F794C3" />
          </linearGradient>
          <filter id="glow" x="-20%" y="-20%" width="140%" height="140%">
            <feGaussianBlur stdDeviation="2" result="blur" />
            <feComposite in="SourceGraphic" in2="blur" operator="over" />
          </filter>
          <clipPath id="moonClip">
            <path d="M50 15C29.5 15 13 31.5 13 52C13 72.5 29.5 89 50 89C61 89 70.7 84.4 77.8 77.1C69.4 81.3 59.6 82 50 78C32.3 70.8 24.3 49.1 31.5 31.4C36.1 20.1 45.8 13 56.6 12C54.5 15.3 53.1 19.2 52.7 23.5C51.8 32.7 56.9 41.5 65.5 45.1C76.3 49.7 89 44.3 93.6 33.5C93.9 32.9 94.1 32.3 94.3 31.7C88.4 21.8 77.6 15 65.2 15C60 15 55 16.1 50.4 18C50.2 18.1 50.1 18.1 50 18.1C51.4 17.4 53.3 16.5 55 15.9C53.4 15.3 51.7 15 50 15Z" class="moon-shape"/>
          </clipPath>
          <radialGradient id="auraGradient" cx="50%" cy="50%" r="70%" fx="50%" fy="50%">
            <stop offset="0%" stop-color="rgba(155, 232, 241, 0.15)" />
            <stop offset="50%" stop-color="rgba(187, 166, 221, 0.1)" />
            <stop offset="100%" stop-color="rgba(247, 148, 195, 0)" />
          </radialGradient>
        </defs>
        
        <!-- Moon aura/glow effect -->
        <circle 
          cx="50" 
          cy="52" 
          r="45" 
          fill="url(#auraGradient)" 
          class="moon-aura"
        />
        
        <!-- Main moon shape - simplified to remove corner shape -->
        <path 
          d="M50 15C29.5 15 13 31.5 13 52C13 72.5 29.5 89 50 89C65 89 75 81.4 80 70C65 85 35 80 31.5 55C28 30 35 18 45 15C40 15 35 15 50 15Z" 
          fill="url(#moonGradient)" 
          class="moon-float"
          filter="url(#glow)"
        />
        
        <!-- Stars -->
        <g class="stars-twinkle">
          <circle cx="25" cy="30" r="1.2" fill="white" class="star-1" />
          <circle cx="40" cy="22" r="1" fill="white" class="star-2" />
          <circle cx="65" cy="25" r="1.5" fill="white" class="star-3" />
          <circle cx="80" cy="45" r="1" fill="white" class="star-4" />
          <circle cx="75" cy="65" r="1.2" fill="white" class="star-5" />
          <circle cx="30" cy="70" r="1" fill="white" class="star-6" />
          <circle cx="45" cy="80" r="0.8" fill="white" class="star-7" />
          <circle cx="60" cy="78" r="0.9" fill="white" class="star-8" />
          <circle cx="85" cy="25" r="0.7" fill="white" class="star-9" />
          <circle cx="15" cy="40" r="0.6" fill="white" class="star-10" />
          <circle cx="20" cy="55" r="0.8" fill="white" class="star-11" />
          <circle cx="70" cy="15" r="0.7" fill="white" class="star-12" />
        </g>
        
        <!-- Orbiting star -->
        <circle cx="50" cy="15" r="1.2" fill="white" class="orbiting-star" />
        
        <!-- Shooting stars -->
        <path 
          d="M80 20L70 30" 
          stroke="white" 
          stroke-width="0.8" 
          stroke-linecap="round" 
          class="shooting-star-1"
          opacity="0"
        />
        <path 
          d="M25 45L15 55" 
          stroke="white" 
          stroke-width="0.8" 
          stroke-linecap="round" 
          class="shooting-star-2"
          opacity="0"
        />
        
        <!-- Digital circuit lines around moon -->
        <g class="circuit-pulse" clip-path="url(#moonClip)">
          <path d="M20 40H80" stroke="rgba(255,255,255,0.3)" stroke-width="0.8" stroke-dasharray="3 6" />
          <path d="M25 55H75" stroke="rgba(255,255,255,0.3)" stroke-width="0.8" stroke-dasharray="6 4" />
          <path d="M30 70H70" stroke="rgba(255,255,255,0.3)" stroke-width="0.8" stroke-dasharray="2 5" />
        </g>
      </svg>
    </g>
  </g>
  
  <!-- Gradient for text -->
  <defs>
    <linearGradient id="textGradient" x1="0%" y1="0%" x2="100%" y2="0%">
      <stop offset="0%" stop-color="#9BE8F1" />
      <stop offset="50%" stop-color="#BBA6DD" />
      <stop offset="100%" stop-color="#F794C3" />
    </linearGradient>
  </defs>
  
  <style>
    @import url('https://fonts.googleapis.com/css2?family=Poppins:wght@700&display=swap');
    
    .logo-text {
      font-family: 'Poppins', sans-serif;
    }
    
    .moon-float {
      transform-origin: center;
      animation: float 6s ease-in-out infinite;
    }
    
    .moon-shape {
      animation: glow 4s ease-in-out infinite alternate;
    }
    
    .stars-twinkle circle {
      animation: twinkle 3s infinite;
    }
    
    .star-1 { animation-delay: 0s; }
    .star-2 { animation-delay: 0.5s; }
    .star-3 { animation-delay: 1s; }
    .star-4 { animation-delay: 1.5s; }
    .star-5 { animation-delay: 2s; }
    .star-6 { animation-delay: 2.5s; }
    .star-7 { animation-delay: 0.7s; }
    .star-8 { animation-delay: 1.8s; }
    .star-9 { animation-delay: 3s; }
    .star-10 { animation-delay: 2.2s; }
    .star-11 { animation-delay: 1.3s; }
    .star-12 { animation-delay: 0.3s; }
    
    .circuit-pulse {
      animation: pulse 8s linear infinite;
    }
    
    .moon-aura {
      animation: aura-pulse 4s ease-in-out infinite alternate;
    }
    
    .orbiting-star {
      transform-origin: 50px 52px;
      animation: orbit 20s linear infinite;
    }
    
    .shooting-star-1 {
      animation: shooting 5s ease-in-out infinite;
      animation-delay: 3s;
    }
    
    .shooting-star-2 {
      animation: shooting 7s ease-in-out infinite;
      animation-delay: 8s;
    }
    
    @keyframes float {
      0%, 100% { transform: translateY(0) rotate(0deg); }
      50% { transform: translateY(-5px) rotate(2deg); }
    }
    
    @keyframes glow {
      0% { opacity: 0.85; }
      100% { opacity: 1; }
    }
    
    @keyframes twinkle {
      0%, 100% { opacity: 1; transform: scale(1); }
      50% { opacity: 0.4; transform: scale(0.8); }
    }
    
    @keyframes pulse {
      0% { opacity: 0.3; }
      50% { opacity: 0.6; }
      100% { opacity: 0.3; }
    }
    
    @keyframes aura-pulse {
      0% { transform: scale(0.95); opacity: 0.4; }
      100% { transform: scale(1.05); opacity: 0.8; }
    }
    
    @keyframes orbit {
      0% { transform: rotate(0deg) translateX(38px) rotate(0deg); }
      100% { transform: rotate(360deg) translateX(38px) rotate(-360deg); }
    }
    
    @keyframes shooting {
      0%, 100% { opacity: 0; transform: translateX(0) translateY(0) scale(0.5); }
      50% { opacity: 1; transform: translateX(-5px) translateY(5px) scale(1.2); }
      60% { opacity: 0; transform: translateX(-7px) translateY(7px) scale(0.1); }
    }
  </style>
</svg>